<svg width="256" height="256" viewBox="0 0 256 256" fill="none" xmlns="http://www.w3.org/2000/svg">
<path d="M189.653 112.142C187.453 103.313 183.282 96.6564 174.397 96.6564H162.94V110.199C162.94 120.713 154.026 129.57 143.855 129.57H113.341C104.999 129.57 98.0848 136.712 98.0848 145.083V174.168C98.0848 182.453 105.285 187.31 113.341 189.682C122.998 192.51 132.284 193.025 143.855 189.682C151.54 187.453 159.111 182.968 159.111 174.168V162.54H128.627V158.654H174.397C183.282 158.654 186.568 152.454 189.653 143.169C192.853 133.598 192.71 124.398 189.653 112.142ZM145.769 170.282C148.94 170.282 151.512 172.882 151.512 176.082C151.512 179.311 148.94 181.911 145.769 181.911C142.626 181.911 140.026 179.282 140.026 176.082C140.055 172.854 142.626 170.282 145.769 170.282ZM111.942 125.741H142.455C150.94 125.741 157.712 118.741 157.712 110.227V81.1141C157.712 72.8286 150.74 66.6289 142.455 65.2289C132.227 63.5432 121.113 63.629 111.942 65.2575C99.0277 67.5431 96.6849 72.3144 96.6849 81.1426V92.7708H127.227V96.6564H85.2281C76.3427 96.6564 68.5715 101.999 66.143 112.142C63.3431 123.77 63.2288 131.027 66.143 143.169C68.3144 152.197 73.4856 158.654 82.3711 158.654H92.8564V144.712C92.8564 134.627 101.57 125.741 111.942 125.741ZM110.027 84.9997C106.856 84.9997 104.285 82.3997 104.285 79.1998C104.313 75.9714 106.856 73.3715 110.027 73.3715C113.17 73.3715 115.77 76 115.77 79.1998C115.77 82.3997 113.199 84.9997 110.027 84.9997Z" fill="url(#paint0_linear_2_13)"/>
<defs>
<linearGradient id="paint0_linear_2_13" x1="128" y1="64" x2="128" y2="192" gradientUnits="userSpaceOnUse">
<stop stop-color="#CC55FF"/>
<stop offset="1" stop-color="#55CCFF"/>
</linearGradient>
</defs>
</svg>
